<svg xmlns="http://www.w3.org/2000/svg" xmlns:xlink="http://www.w3.org/1999/xlink" width="124" height="124" viewBox="0 0 124 124">
    <defs>
        <path id="rt9zju1z3a" d="M0 0L124 0 124 124 0 124z"/>
    </defs>
    <g fill="none" fill-rule="evenodd">
        <g>
            <g>
                <g transform="translate(-118 -72) translate(118 72)">
                    <mask id="0l0icsxqqb" fill="#fff">
                        <use xlink:href="#rt9zju1z3a"/>
                    </mask>
                    <path fill="#E6EBF5" d="M124 62c0 34.242-27.758 62-62 62-34.241 0-62-27.758-62-62C0 27.758 27.759 0 62 0c34.242 0 62 27.758 62 62" mask="url(#0l0icsxqqb)"/>
                </g>
                <path fill="#FFDCD7" d="M84.417 54.757c0-1.897-1.54-3.436-3.436-3.436h-1.213v-3.234c0-9.042-7.33-16.372-16.372-16.372l-7.65-3.156c-9.042 0-8.721 10.486-8.721 19.528v3.436h-1.213c-1.897 0-3.436 1.54-3.436 3.436 0 4.467 2.089 7.998 4.728 8.27.379 3.908 2.132 7.415 4.77 10.03v15.858c0 6.363 5.16 11.521 11.522 11.521 6.363 0 11.52-5.158 11.52-11.52V73.258c2.687-2.66 4.452-6.245 4.789-10.235 2.63-.283 4.712-3.809 4.712-8.267" transform="translate(-118 -72) translate(118 72)"/>
                <path fill="#EAB9B5" d="M63.297 77.799c-4.41 0-8.423-1.657-11.422-4.365l20.34 22.81c1.688-1.991 2.702-4.544 2.702-7.328V73.25c-3.019 2.816-7.11 4.549-11.62 4.549M46.823 52.967v8.258s-3.234-1.835-2.83-5.322c0 0 0-3.303 2.83-2.936M79.768 52.967v8.258s3.234-1.835 2.83-5.322c0 0 0-3.303-2.83-2.936" transform="translate(-118 -72) translate(118 72)"/>
                <path fill="#00E1A1" d="M22.393 104.662l-2.148 2.468C30.07 118.532 46.302 124 62.535 124c16.567 0 28.566-5.061 41.22-16.027l2.531-2.53c-5.18-8.144-16.71-13.857-26.362-13.857L63.85 96.989l-17.644-5.403c-9.65 0-18.632 4.932-23.812 13.076" transform="translate(-118 -72) translate(118 72)"/>
                <path fill="#05C187" d="M51.652 83.731L47 92.756 54.612 106.295 63.89 96.964z" transform="translate(-118 -72) translate(118 72)"/>
                <path fill="#05C187" d="M74.853 82.731L79 91.756 72.214 105.295 63.677 96.934z" transform="translate(-118 -72) translate(118 72)"/>
                <path fill="#000" d="M50.15 30.612l3.029 7.879-6.024 13.12-2.482-8.375s-3.151-10.338 5.478-12.624" transform="translate(-118 -72) translate(118 72)"/>
                <path fill="#000" d="M50.163 30.77l3.516 7.32s6.001-1.942 12.071-1.857c5.232.074 10.886 3.95 12.018 9.009.03.13.057.262.082.396.372 1.945 1.804 7.428 1.804 7.428l2.573-10.678c1.142-6.57-2.334-13.114-8.496-15.8-3.46-1.508-7.998-2.47-13.842-2.01-2.929.23-5.706 1.482-7.724 3.596-.588.616-1.688 1.893-2.002 2.596M54.72 54.278c-1.218 0-2.364-.563-3.228-1.59l-.023-.026c-.26-.306-.221-.765.085-1.025.307-.26.767-.221 1.026.086l.023.027c.584.693 1.334 1.073 2.117 1.073h.01c.79-.003 1.545-.392 2.127-1.095.257-.31.715-.352 1.025-.096.309.257.352.715.096 1.025-.863 1.04-2.014 1.616-3.242 1.62h-.015zM71.885 54.278c-1.219 0-2.365-.563-3.229-1.59l-.022-.026c-.26-.306-.222-.765.085-1.025.307-.26.766-.221 1.025.086l.024.027c.583.693 1.334 1.073 2.117 1.073h.01c.79-.003 1.544-.392 2.126-1.095.256-.31.715-.352 1.024-.096.31.257.353.715.096 1.025-.86 1.04-2.012 1.616-3.24 1.62h-.016z" transform="translate(-118 -72) translate(118 72)"/>
                <path fill="#29ABE2" d="M53.742 57.457c.245-.425.858-.425 1.103 0l1.734 3.004c1.017 1.76-.254 3.959-2.286 3.959-2.031 0-3.301-2.2-2.285-3.96l1.734-3.003z" transform="translate(-118 -72) translate(118 72)"/>
                <path fill="#EAB9B5" d="M63.335 54.895c.716 0 1.328.536 1.445 1.267l.63 3.904c.213 1.326-.775 2.534-2.075 2.534-1.299 0-2.288-1.208-2.074-2.534l.63-3.904c.116-.73.728-1.267 1.444-1.267M63.212 64.508c-1.299 0-2.522.604-3.446 1.7l-.026.03c-.216.255-.184.638.071.854.256.217.638.186.855-.07l.026-.031c.691-.82 1.585-1.271 2.52-1.271h.012c.943.004 1.841.465 2.53 1.297.214.258.597.294.854.08.258-.214.294-.596.081-.854-.923-1.113-2.152-1.73-3.46-1.735h-.017z" transform="translate(-118 -72) translate(118 72)"/>
            </g>
        </g>
    </g>
</svg>
