<svg xmlns="http://www.w3.org/2000/svg" xmlns:xlink="http://www.w3.org/1999/xlink" width="200" height="100" viewBox="0 0 200 100">
    <defs>
        <path id="108gvt3kza" d="M7.311 0.461L7.311 5.774 0.452 5.774 0.452 70.848 25.398 70.848 25.398 0.461z"/>
        <path id="mt0e6z35rd" d="M22.39 0.415L6.101 4.724 6.101 13.883 0.238 13.883 0.238 92.736 28.252 92.736 28.252 13.883 22.39 13.883z"/>
        <path id="svrvj8m9fh" d="M0 0.268L11.868 0.268 11.868 12.136 0 12.136z"/>
        <path id="snekxy80wj" d="M0 92.736L145.253 92.736 145.253 0.415 0 0.415z"/>
        <path id="2zjauu1cem" d="M0.023 0.028L126.805 0.028 126.805 36.161 0.023 36.161z"/>
        <path id="en73z0l2eo" d="M0.002 0.106L12.305 0.106 12.305 21.558 0.002 21.558z"/>
        <path id="por53byeeq" d="M.125 5.975c0 3.293 1.743 5.962 3.893 5.962 2.15 0 3.894-2.669 3.894-5.962C7.912 2.682 6.17.013 4.018.013 1.868.013.125 2.683.125 5.975"/>
        <path id="td2sffwtlt" d="M0.072 0.106L12.368 0.106 12.368 21.558 0.072 21.558z"/>
        <path id="7yifb29hyv" d="M.027 5.966c0 3.293 1.743 5.962 3.894 5.962 2.15 0 3.894-2.67 3.894-5.962C7.815 2.673 6.07.004 3.92.004 1.77.004.027 2.674.027 5.966"/>
        <linearGradient id="ji9c6qwb3b" x1="59.407%" x2="59.407%" y1="-4.35%" y2="63.679%">
            <stop offset="0%" stop-color="#EDF0FD"/>
            <stop offset="100%" stop-color="#FFF"/>
        </linearGradient>
        <linearGradient id="tpkmuu11fe" x1="50%" x2="50%" y1="3.203%" y2="100%">
            <stop offset="0%" stop-color="#EDF0FD"/>
            <stop offset="100%" stop-color="#FFF"/>
        </linearGradient>
        <linearGradient id="v0vv1hq1zg" x1="50%" x2="50%" y1="0%" y2="81.417%">
            <stop offset="0%" stop-color="#EDF0FD"/>
            <stop offset="100%" stop-color="#FFF"/>
        </linearGradient>
        <linearGradient id="e7cft00ulr" x1="50%" x2="50%" y1="0%" y2="100%">
            <stop offset="0%" stop-color="#E2F2FF"/>
            <stop offset="100%" stop-color="#F2F4FD"/>
        </linearGradient>
        <linearGradient id="qeysu902jw" x1="50%" x2="50%" y1="0%" y2="100%">
            <stop offset="0%" stop-color="#DCEAF7"/>
            <stop offset="100%" stop-color="#F2F4FD"/>
        </linearGradient>
        <filter id="mt8140nppl" width="105.1%" height="200%" x="-2.5%" y="-50%" filterUnits="objectBoundingBox">
            <feGaussianBlur in="SourceGraphic" stdDeviation="1"/>
        </filter>
    </defs>
    <g fill="none" fill-rule="evenodd">
        <g>
            <g transform="translate(-80.000000, -200.000000) translate(80.000000, 200.000000)">
                <path fill="#FFF" d="M0 0H200V100H0z"/>
                <g>
                    <g transform="translate(13.000000, 0.000000) translate(71.424000, 22.049280)">
                        <mask id="c7b7bp8nmc" fill="#fff">
                            <use xlink:href="#108gvt3kza"/>
                        </mask>
                        <path fill="url(#ji9c6qwb3b)" d="M7.311 0.461L7.311 5.774 0.452 5.774 0.452 70.848 25.398 70.848 25.398 0.461z" mask="url(#c7b7bp8nmc)"/>
                    </g>
                    <g transform="translate(13.000000, 0.000000) translate(33.984000, 0.161280)">
                        <mask id="9mytewb9gf" fill="#fff">
                            <use xlink:href="#mt0e6z35rd"/>
                        </mask>
                        <path fill="url(#tpkmuu11fe)" d="M22.39 0.415L6.101 4.724 6.101 13.883 0.238 13.883 0.238 92.736 28.252 92.736 28.252 13.883 22.39 13.883z" mask="url(#9mytewb9gf)"/>
                    </g>
                    <path fill="url(#v0vv1hq1zg)" d="M20.951 92.897L40.387 92.897 40.387 38.033 20.951 38.033z" transform="translate(13.000000, 0.000000)"/>
                    <g transform="translate(13.000000, 0.000000) translate(0.000000, 0.161280)">
                        <path fill="#EEF1FD" d="M111.55 15.61c0 1.256-1.019 2.274-2.275 2.274-1.257 0-2.275-1.018-2.275-2.275 0-1.256 1.018-2.275 2.275-2.275 1.256 0 2.275 1.019 2.275 2.275"/>
                        <path stroke="#EEF1FD" stroke-width="1.152" d="M142.677 40.886c0 1.472-1.194 2.665-2.666 2.665s-2.665-1.193-2.665-2.665 1.193-2.665 2.665-2.665 2.666 1.193 2.666 2.665z"/>
                        <g transform="translate(0.000000, 31.104000)">
                            <mask id="jvhszbk2ri" fill="#fff">
                                <use xlink:href="#svrvj8m9fh"/>
                            </mask>
                            <path fill="#EEF1FE" d="M5.934 0.268L4.159 4.425 0 6.202 4.159 7.979 5.934 12.136 7.711 7.979 11.868 6.202 7.711 4.425z" mask="url(#jvhszbk2ri)"/>
                        </g>
                        <mask id="vraw4mhwak" fill="#fff">
                            <use xlink:href="#snekxy80wj"/>
                        </mask>
                        <path fill="#FFF" d="M38.32 22.249L58.32 22.249 58.32 19.563 38.32 19.563zM38.32 27.662L58.32 27.662 58.32 24.977 38.32 24.977z" mask="url(#vraw4mhwak)"/>
                    </g>
                </g>
                <ellipse cx="99" cy="93" fill="#C3CFEB" fill-opacity=".5" filter="url(#mt8140nppl)" rx="59" ry="3"/>
                <g>
                    <g>
                        <path fill="#97A9CB" d="M71.298 34.372c0 5.442 2.838 9.855 6.338 9.855h4.724l.12-19.71h-4.844c-3.5 0-6.338 4.412-6.338 9.855" transform="translate(36.000000, 49.000000) translate(0.337516, 0.000000)"/>
                        <path fill="#97A9CB" d="M76.14 34.372c0 5.442 2.838 9.855 6.339 9.855 3.5 0 6.339-4.413 6.339-9.855 0-5.443-2.838-9.855-6.339-9.855-3.5 0-6.339 4.412-6.339 9.855M4.82 34.372c0 5.442 2.838 9.855 6.339 9.855h4.724l.119-19.71h-4.843c-3.5 0-6.339 4.412-6.339 9.855" transform="translate(36.000000, 49.000000) translate(0.337516, 0.000000)"/>
                        <path fill="#97A9CB" d="M9.663 34.372c0 5.442 2.838 9.855 6.339 9.855 3.5 0 6.338-4.413 6.338-9.855 0-5.443-2.838-9.855-6.338-9.855-3.501 0-6.34 4.412-6.34 9.855" transform="translate(36.000000, 49.000000) translate(0.337516, 0.000000)"/>
                        <g transform="translate(36.000000, 49.000000) translate(0.337516, 0.000000)">
                            <mask id="quglb75r3n" fill="#fff">
                                <use xlink:href="#2zjauu1cem"/>
                            </mask>
                            <path fill="#D4DDF1" d="M121.024 15.077c-5.156-3.179-7.845-8.269-17.342-11.576-4.564-1.59-10.11-2.085-13.626-2.48C80.638-.04 67.031-.975 51.027 2.26L22.753 15.49l-7.845 2.066-13.626 3.308L.075 29.81c-.454 3.36 2.156 6.351 5.543 6.351H120.23c.241-.071.478-.152.713-.236l1.528.151 4.334-3.222v-15.71s-3.346-.566-5.78-2.067" mask="url(#quglb75r3n)"/>
                        </g>
                        <g transform="translate(36.000000, 49.000000) translate(0.337516, 0.000000) translate(41.415546, 22.825744)">
                            <mask id="3smoh48smp" fill="#fff">
                                <use xlink:href="#en73z0l2eo"/>
                            </mask>
                            <path fill="#97A9CB" d="M.002 10.648c0 5.822 2.904 9.977 6.385 10.542 5.093.827 5.918 0 5.918 0L11.892.106H6.387C2.861.106.002 4.826.002 10.648" mask="url(#3smoh48smp)"/>
                        </g>
                        <path fill="#97A9CB" d="M46.293 33.388c-.207 5.846 2.673 10.694 6.434 10.827 3.76.134 6.976-4.497 7.183-10.343.207-5.847-2.842-10.807-6.602-10.94-3.76-.134-6.808 4.61-7.015 10.456" transform="translate(36.000000, 49.000000) translate(0.337516, 0.000000)"/>
                    </g>
                    <g transform="translate(36.000000, 49.000000) translate(49.277376, 27.001302)">
                        <mask id="xfv3kjoz2s" fill="#fff">
                            <use xlink:href="#por53byeeq"/>
                        </mask>
                        <use fill="url(#e7cft00ulr)" xlink:href="#por53byeeq"/>
                        <path d="M.125 5.975c0 3.293 1.743 5.962 3.893 5.962 2.15 0 3.894-2.669 3.894-5.962C7.912 2.682 6.17.013 4.018.013 1.868.013.125 2.683.125 5.975" mask="url(#xfv3kjoz2s)"/>
                    </g>
                    <g>
                        <path fill="#BCCFE7" d="M56.123 33.02c0-2.982-1.4-5.448-3.233-5.91.147-.027.296-.044.448-.044 2.128 0 3.854 2.684 3.854 5.994 0 3.311-1.726 5.995-3.854 5.995-.211 0-.417-.034-.62-.085 1.917-.346 3.405-2.876 3.405-5.95" transform="translate(36.000000, 49.000000)"/>
                        <path fill="#ECF0F9" d="M51.176 2.26L23.943 15.078 1.66 20.864.449 29.847C0 33.188 2.592 36.16 5.957 36.16H28.75l.97-14.056 19.806-7.028S63.556-.633 86.25.607c0 0-20.632-2.067-35.074 1.654" transform="translate(36.000000, 49.000000)"/>
                        <path fill="#FFF" d="M40.448 18.384s-17.743.827-21.87 9.095h18.569l3.301-9.095z" transform="translate(36.000000, 49.000000)"/>
                        <path fill="#D5DCF6" d="M23.943 15.077l14.825-.897c3.696-.224 7.267-1.425 10.352-3.489 4.36-2.917 11.52-7.319 18.742-8.976.169-.038.134-.288-.039-.28l-14.4.644c-1.497.067-2.966.407-4.341 1.004-5.1 2.215-18.25 8.025-25.14 11.994" transform="translate(36.000000, 49.000000)"/>
                        <path fill="#CCD8F2" d="M.423 27.48h28.884l5.633 2.367-6.026 4.345-26.428.729s-3.714-2.48-2.063-7.442" transform="translate(36.000000, 49.000000)"/>
                        <path fill="#97A9CB" d="M5.787 23.759s.825.413.802 3.72l4.562 1.654 7.428-1.654s.825-2.067 4.538-4.547l-17.33.827zM59.424 35.939L123.006 35.939 118.225 38.957 58.604 38.957z" transform="translate(36.000000, 49.000000)"/>
                        <g transform="translate(36.000000, 49.000000) translate(94.926453, 22.825744)">
                            <mask id="firyg0dkzu" fill="#fff">
                                <use xlink:href="#td2sffwtlt"/>
                            </mask>
                            <path fill="#97A9CB" d="M.072 10.648c0 5.822 2.903 9.977 6.382 10.542 5.088.827 5.914 0 5.914 0L11.955.106H6.454C2.929.106.072 4.826.072 10.648" mask="url(#firyg0dkzu)"/>
                        </g>
                        <path fill="#97A9CB" d="M106.3 44.215c3.758.134 6.972-4.497 7.18-10.343.206-5.847-2.84-10.807-6.599-10.94-3.757-.134-6.803 4.61-7.01 10.456-.207 5.846 2.672 10.694 6.43 10.827z" transform="translate(36.000000, 49.000000)"/>
                    </g>
                    <g transform="translate(36.000000, 49.000000) translate(102.604948, 27.507577)">
                        <mask id="n8yqufr0jx" fill="#fff">
                            <use xlink:href="#7yifb29hyv"/>
                        </mask>
                        <use fill="url(#qeysu902jw)" xlink:href="#7yifb29hyv"/>
                        <path d="M.027 5.966c0 3.293 1.743 5.962 3.894 5.962 2.15 0 3.894-2.67 3.894-5.962C7.815 2.673 6.07.004 3.92.004 1.77.004.027 2.674.027 5.966" mask="url(#n8yqufr0jx)"/>
                    </g>
                    <g>
                        <path fill="#BCCFE7" d="M108.894 31.737c0-2.976-1.4-5.438-3.232-5.9.147-.026.297-.043.448-.043 2.128 0 3.852 2.679 3.852 5.983 0 3.305-1.724 5.983-3.852 5.983-.21 0-.417-.033-.62-.084 1.917-.345 3.404-2.87 3.404-5.94" transform="translate(36.000000, 49.000000) translate(0.506274, 1.675033)"/>
                        <path fill="#D4DDF1" d="M106.424 21.255S98.587 20.017 98.7 34.46l-38.474-.485 38.321-13.957 7.878 1.238z" transform="translate(36.000000, 49.000000) translate(0.506274, 1.675033)"/>
                        <path fill="#FFF" d="M1.238 19.192L.001 25.794h6.164s.848-5.364-4.927-6.602" transform="translate(36.000000, 49.000000) translate(0.506274, 1.675033)"/>
                        <path fill="#F0F6FE" d="M1.238 19.192L3.426 25.794 0.001 25.794z" transform="translate(36.000000, 49.000000) translate(0.506274, 1.675033)"/>
                        <path fill="#D4DDF1" d="M82.566 17.471H77.58c-.332 0-.601-.269-.601-.601v-.576h6.187v.576c0 .332-.27.601-.601.601" transform="translate(36.000000, 49.000000) translate(0.506274, 1.675033)"/>
                        <path fill="#EEF3FA" d="M40.013 16.716L36.73 25.794 28.588 25.794z" transform="translate(36.000000, 49.000000) translate(0.506274, 1.675033)"/>
                        <path fill="#D4DDF1" d="M50.5 21.252s-6.122 1.463-4.457 13.456l-5.995-.333s-2.362-12.043 6.146-15.183l4.307 2.06z" transform="translate(36.000000, 49.000000) translate(0.506274, 1.675033)"/>
                        <path fill="#97A9CB" d="M114.897 18.226h-4.984c-.332 0-.601-.269-.601-.601v-.576h6.187v.576c0 .332-.27.601-.602.601" transform="translate(36.000000, 49.000000) translate(0.506274, 1.675033)"/>
                        <path fill="#CDD7EC" d="M59.818 30.31s.022 3.155-.216 3.943l39.097.206s.118-4.688.706-6.717c0 0-24.48 3.5-39.587 2.567" transform="translate(36.000000, 49.000000) translate(0.506274, 1.675033)"/>
                        <path fill="#C2CEE6" d="M80.319 34.375L79.996 34.295 85.093 13.794 85.515 13.794z" transform="translate(36.000000, 49.000000) translate(0.506274, 1.675033)"/>
                        <path fill="#BCC9EE" d="M56.203 13.795s.999-3.347 10.194-7.495c4.413-1.991 9.856-4.09 14.678-4.35 8.425-.457 25.35-1.326 35.249 11.878l-60.12-.033z" transform="translate(36.000000, 49.000000) translate(0.506274, 1.675033)"/>
                        <path fill="#CDD7FA" d="M51.561.593s-2.234.302-6.04 2.217c0 0-17.895 7.635-22.008 10.605l16.234-1.028s6.675-.756 11.814-5.208c0 0-15.796 1.94 0-6.586" transform="translate(36.000000, 49.000000) translate(0.506274, 1.675033)"/>
                        <path fill="#CDD7EC" d="M112.212 26.712l14.424-3.382v7.828l-4.33 3.217h-9.513s.647-2.666-.58-7.663" transform="translate(36.000000, 49.000000) translate(0.506274, 1.675033)"/>
                        <path fill="#97A9CB" d="M47.271 34.041L39.187 34.041 35.499 31.984 0.826 31.984 5.115 36.935 18.92 37.059 18.068 37.25 47.418 37.25z" transform="translate(36.000000, 49.000000) translate(0.506274, 1.675033)"/>
                        <path fill="#E4EAFE" d="M71.774 5.99h-4.706c-.235.103-.468.206-.696.31-3.674 1.657-6.039 3.186-7.555 4.425l-4.09 3.28 14.972-.421 2.515-6.967c.11-.305-.116-.628-.44-.628M83.828 13.584l-11.809.21 1.82-5.459C74.258 7.07 75.58 6.2 77.081 6.2h9.277l-2.53 7.384z" transform="translate(36.000000, 49.000000) translate(0.506274, 1.675033)"/>
                        <path fill="#D7DFFC" d="M85.515 13.795h-4.007l2.058-6.174c.28-.842 1.16-1.42 2.159-1.42h1.477l-1.687 7.594zM69.91 13.584h-2.53l2.057-6.174c.28-.842 1.16-1.42 2.159-1.42h.255c.29 0 .495.284.403.56l-2.344 7.034z" transform="translate(36.000000, 49.000000) translate(0.506274, 1.675033)"/>
                        <path fill="#97A9CB" d="M126.636 15.904L121.575 15.904 126.636 22.232z" transform="translate(36.000000, 49.000000) translate(0.506274, 1.675033)"/>
                        <path fill="#B9CBEC" d="M101.852 3.742s1.588 3.513-15.072 4.146l-1.265 5.906 30.809.034s-4.672-7.06-14.472-10.086" transform="translate(36.000000, 49.000000) translate(0.506274, 1.675033)"/>
                        <path fill="#C2CEE6" d="M85.515 13.795L85.093 13.795 88.31 1.332 88.719 1.434z" transform="translate(36.000000, 49.000000) translate(0.506274, 1.675033)"/>
                        <path fill="#C1CEEA" d="M63.666 7.587l-1.347.723s1.898 1.476 1.265 5.484l1.618.034s.912-3.83-1.536-6.241" transform="translate(36.000000, 49.000000) translate(0.506274, 1.675033)"/>
                    </g>
                </g>
            </g>
        </g>
    </g>
</svg>
