<svg xmlns="http://www.w3.org/2000/svg" width="60" height="60" viewBox="0 0 60 60">
    <g fill="none" fill-rule="evenodd">
        <g>
            <circle cx="30" cy="30" r="30" fill="#F2F2F2"/>
            <path stroke="#000" stroke-linejoin="round" stroke-width="1.5" d="M25.352 34.3c2.965 3.026 6.613 4.914 10.413 5.664.64.126 1.3-.083 1.761-.554l2.245-2.291c.307-.313.307-.82 0-1.134l-4.24-4.327c-.306-.313-.803-.313-1.11 0L32.2 33.925c-.306.313-.803.313-1.11 0l-4.73-4.828c-.306-.313-.306-.82 0-1.133l2.222-2.268c.306-.313.306-.82 0-1.133l-4.24-4.328c-.306-.313-.804-.313-1.11 0L20.58 22.94c-.49.5-.69 1.226-.519 1.91.865 3.45 2.63 6.732 5.291 9.45h.001z"/>
        </g>
    </g>
</svg>
